<svg xmlns="http://www.w3.org/2000/svg" width="24" height="24" viewBox="0 0 24 24">
    <g id="Group_11" data-name="Group 11" transform="translate(-1825 -1046)">
        <g id="crystal_ball_line" transform="translate(1825 1046)">
            <path id="Path_14" data-name="Path 14" d="M24,0V24H0V0ZM12.594,23.258l-.012,0-.071.035-.019,0-.015,0-.071-.035a.021.021,0,0,0-.024.005l0,.011-.017.427.005.02.011.012.1.074.015,0,.012,0,.1-.074.013-.016,0-.017-.017-.427A.021.021,0,0,0,12.594,23.258Zm.265-.112-.014,0-.185.092-.01.01,0,.011.018.429,0,.013.009.007.2.093a.025.025,0,0,0,.028-.008l0-.014-.034-.615A.025.025,0,0,0,12.858,23.145Zm-.715,0a.023.023,0,0,0-.027.005l-.006.014-.034.615a.023.023,0,0,0,.017.023h.016l.2-.093.009-.008,0-.012.018-.429,0-.013-.009-.009Z" fill="none"/>
            <path id="Path_15" data-name="Path 15" d="M12,2a8.5,8.5,0,0,1,5.331,15.121L17.1,17.3l.71,2.839a1.5,1.5,0,0,1-1.324,1.858L16.36,22H7.64a1.5,1.5,0,0,1-1.482-1.735l.026-.129L6.9,17.3A8.5,8.5,0,0,1,12,2Zm3.219,16H8.781l-.5,2h7.438ZM12,4A6.5,6.5,0,0,0,8.534,16h6.931A6.5,6.5,0,0,0,12,4Zm4.11,5.561q.035.078.073.154a2.9,2.9,0,0,0,.459.654,2.825,2.825,0,0,0,.5.421l.176.108h0a.118.118,0,0,1,0,.205l-.176.108h0a2.825,2.825,0,0,0-.5.421,2.869,2.869,0,0,0-.459.653q-.038.076-.073.154a.121.121,0,0,1-.22,0q-.035-.078-.073-.154a2.869,2.869,0,0,0-.459-.653,2.825,2.825,0,0,0-.5-.421l-.176-.108h0a.118.118,0,0,1,0-.205l.176-.108h0a2.825,2.825,0,0,0,.5-.421,2.9,2.9,0,0,0,.459-.654q.038-.076.073-.154A.121.121,0,0,1,16.11,9.561ZM12.816,5.6a.2.2,0,0,1,.367,0c.039.087.079.173.122.257a4.781,4.781,0,0,0,.765,1.089,4.715,4.715,0,0,0,.831.7q.143.095.294.18a.2.2,0,0,1,0,.342q-.15.085-.294.18a4.715,4.715,0,0,0-.831.7,4.781,4.781,0,0,0-.765,1.089c-.043.085-.083.17-.122.257a.2.2,0,0,1-.367,0c-.039-.087-.078-.173-.122-.257a4.78,4.78,0,0,0-.765-1.089,4.715,4.715,0,0,0-.831-.7q-.143-.095-.294-.18a.2.2,0,0,1,0-.342q.15-.085.294-.18a4.715,4.715,0,0,0,.831-.7,4.781,4.781,0,0,0,.765-1.089C12.738,5.774,12.778,5.688,12.816,5.6Z" fill="#d8d8d8"/>
        </g>
        <g id="Group_9" data-name="Group 9" transform="translate(5)">
            <line id="Line_9" data-name="Line 9" y2="15" transform="translate(1823 1053)" fill="none" stroke="#d8d8d8" stroke-width="2"/>
            <g id="Rectangle_17" data-name="Rectangle 17" transform="translate(1820 1048)" fill="none" stroke="#d8d8d8" stroke-width="1">
                <rect width="6" height="6" stroke="none"/>
                <rect x="0.5" y="0.5" width="5" height="5" fill="none"/>
            </g>
            <line id="Line_10" data-name="Line 10" x2="5" transform="translate(1820.5 1050.5)" fill="none" stroke="#d8d8d8" stroke-width="1"/>
            <line id="Line_11" data-name="Line 11" y2="2" transform="translate(1823 1050.5)" fill="none" stroke="#d8d8d8" stroke-width="1"/>
        </g>
    </g>
</svg>
