<svg xmlns="http://www.w3.org/2000/svg" width="39" height="39" viewBox="0 0 39 39">
    <g id="folder_2_line" transform="translate(4 2)">
        <path id="Path_16" data-name="Path 16" d="M0,0V39H39V0ZM18.536,37.794l.018,0,.115.057.033.007.023-.007.115-.057a.033.033,0,0,1,.039.008l.006.016.028.7-.008.033-.016.021-.169.12L18.7,38.7l-.02-.007-.169-.12-.019-.026-.007-.028.028-.694A.035.035,0,0,1,18.536,37.794Zm-.431-.184.021,0,.3.151.016.016,0,.018-.029.7-.008.019-.013.011-.327.151a.041.041,0,0,1-.047-.013l-.007-.023.055-1a.044.044,0,0,1,.033-.036Zm1.162,0a.037.037,0,0,1,.044.01l.01.023.055,1a.041.041,0,0,1-.028.039l-.024,0L19,38.529l-.016-.013-.007-.018-.028-.7,0-.019.016-.016.3-.15Z" transform="translate(-4 -2)" fill="none" fill-rule="evenodd"/>
        <path id="Path_7" data-name="Path 7" d="M11.253,3a2.474,2.474,0,0,1,1.774.748l.148.167L14.9,6.044h9.253A2.45,2.45,0,0,1,26.6,8.3l.006.183v14a2.446,2.446,0,0,1-2.276,2.429l-.185.006H4.461a2.45,2.45,0,0,1-2.455-2.252L2,22.479V5.435A2.446,2.446,0,0,1,4.276,3.006L4.461,3Zm12.9,9.74H4.461v9.74H24.148Zm-12.9-7.3H4.461V10.3H24.148V8.478H14.9a2.474,2.474,0,0,1-1.774-.748l-.148-.167Z" transform="translate(0.695 1.043)" fill="#fff"/>
    </g>
    <line id="Line_2" data-name="Line 2" x2="30" transform="translate(4 34.5)" fill="none" stroke="#dfdfdf" stroke-width="2"/>
</svg>
