<svg id="folder_locked_2_line" xmlns="http://www.w3.org/2000/svg" width="50" height="50" viewBox="0 0 50 50">
    <path id="Path_8" data-name="Path 8" d="M50,0V50H0V0ZM26.235,48.454l-.023,0-.148.073-.042.008-.029-.008-.148-.073a.043.043,0,0,0-.05.01l-.008.021-.035.892.01.042.021.027L26,49.6l.031.008.025-.008.217-.154.025-.033.008-.035-.035-.89A.044.044,0,0,0,26.235,48.454Zm.552-.235-.027,0-.385.194-.021.021-.006.023.038.9.01.025.017.015.419.194a.053.053,0,0,0,.06-.017l.008-.029-.071-1.279a.056.056,0,0,0-.042-.046Zm-1.49,0a.048.048,0,0,0-.056.012l-.012.029-.071,1.279a.052.052,0,0,0,.035.05l.031,0,.419-.194.021-.017.008-.023.035-.9-.006-.025-.021-.021-.383-.192Z" fill="none"/>
    <path id="Path_9" data-name="Path 9" d="M39.95,26.684a5.837,5.837,0,0,1,5.75,5.921v1.184A2.335,2.335,0,0,1,48,36.158v9.474A2.335,2.335,0,0,1,45.7,48H34.2a2.335,2.335,0,0,1-2.3-2.368V36.158a2.335,2.335,0,0,1,2.3-2.368V32.605a5.837,5.837,0,0,1,5.75-5.921ZM19.3,3a4.551,4.551,0,0,1,3.59,1.776l3.22,4.145H43.4A4.67,4.67,0,0,1,48,13.658V24.316H43.4V13.658H26.1a4.551,4.551,0,0,1-3.59-1.776l-3.22-4.145H6.6V40.895H27.3v4.737H6.6A4.67,4.67,0,0,1,2,40.895V7.737A4.67,4.67,0,0,1,6.6,3ZM43.4,38.526H36.5v4.737h6.9Zm-3.45-7.105a1.167,1.167,0,0,0-1.15,1.184v1.184h2.3V32.605A1.167,1.167,0,0,0,39.95,31.421Z" fill="#f86565"/>
</svg>
