<svg id="delete_2_line" xmlns="http://www.w3.org/2000/svg" width="54" height="54" viewBox="0 0 54 54">
    <path id="Path_17" data-name="Path 17" d="M54,0V54H0V0ZM28.334,52.331l-.025,0-.16.079-.045.009-.031-.009-.16-.079a.046.046,0,0,0-.054.011l-.009.022-.038.963.011.045.023.029.234.166.034.009.027-.009.234-.166.027-.036.009-.038-.038-.961A.048.048,0,0,0,28.334,52.331Zm.6-.254-.029,0-.416.209-.023.022-.007.025.04.967.011.027.018.016.452.209a.057.057,0,0,0,.065-.018l.009-.031-.077-1.382a.06.06,0,0,0-.045-.049Zm-1.609,0a.052.052,0,0,0-.061.013l-.013.032-.077,1.382a.056.056,0,0,0,.038.054l.034,0,.452-.209.023-.018.009-.025.038-.967-.007-.027-.022-.022-.414-.207Z" fill="none"/>
    <path id="Path_18" data-name="Path 18" d="M28.38,2a4.5,4.5,0,0,1,4.268,3.078L33.87,8.75h7.38a2.25,2.25,0,0,1,0,4.5l-.007.16L39.292,40.732A6.75,6.75,0,0,1,32.561,47H13.94a6.75,6.75,0,0,1-6.732-6.268L5.257,13.408q-.006-.079-.007-.157a2.25,2.25,0,1,1,0-4.5h7.38l1.222-3.672A4.5,4.5,0,0,1,18.122,2H28.378Zm8.363,11.25H9.757L11.7,40.41a2.25,2.25,0,0,0,2.243,2.09H32.561A2.25,2.25,0,0,0,34.8,40.41ZM18.75,20a2.25,2.25,0,0,1,2.234,1.986L21,22.25V33.5a2.25,2.25,0,0,1-4.484.263L16.5,33.5V22.25A2.25,2.25,0,0,1,18.75,20Zm9,0A2.25,2.25,0,0,1,30,22.25V33.5a2.25,2.25,0,1,1-4.5,0V22.25A2.25,2.25,0,0,1,27.75,20Zm.63-13.5H18.12l-.749,2.25H29.129L28.378,6.5Z" transform="translate(3.75 2.5)" fill="#eee"/>
</svg>
