<svg xmlns="http://www.w3.org/2000/svg" width="39" height="39" viewBox="0 0 39 39">
    <g id="magic_2_line" transform="translate(0)">
        <path id="Path_2" data-name="Path 2" d="M0,0V39H39V0ZM18.536,37.794l.018,0,.115.057.033.007.023-.007.115-.057a.033.033,0,0,1,.039.008l.006.016.028.7-.008.033-.016.021-.169.12L18.7,38.7l-.02-.007-.169-.12-.019-.026-.007-.028.028-.694A.035.035,0,0,1,18.536,37.794Zm-.431-.184.021,0,.3.151.016.016,0,.018-.029.7-.008.019-.013.011-.327.151a.041.041,0,0,1-.047-.013l-.007-.023.055-1a.044.044,0,0,1,.033-.036Zm1.162,0a.037.037,0,0,1,.044.01l.01.023.055,1a.041.041,0,0,1-.028.039l-.024,0L19,38.529l-.016-.013-.007-.018-.028-.7,0-.019.016-.016.3-.15Z" transform="translate(0)" fill="none" fill-rule="evenodd"/>
        <path id="Path_3" data-name="Path 3" d="M25.2,6.6A1.538,1.538,0,1,1,27.375,8.78l-3.263,3.266a1.539,1.539,0,1,1-2.175-2.177L25.2,6.607Zm-7.615,7.615a1.538,1.538,0,1,1,2.175,2.175L5.62,30.535a1.538,1.538,0,1,1-2.175-2.175l14.141-14.14ZM9.97,6.6a1.538,1.538,0,0,0,0,2.175l3.264,3.266A1.539,1.539,0,0,0,15.41,9.869L12.147,6.607a1.538,1.538,0,0,0-2.177,0ZM21.937,20.746a1.539,1.539,0,0,1,2.175-2.177l3.263,3.264A1.538,1.538,0,1,1,25.2,24.009ZM6.366,15.307A1.538,1.538,0,0,0,7.9,16.845h4.615a1.538,1.538,0,0,0,0-3.077H7.9A1.538,1.538,0,0,0,6.366,15.307Zm18.46,1.538a1.538,1.538,0,1,1,0-3.077h4.615a1.538,1.538,0,1,1,0,3.077ZM18.673,27.614a1.538,1.538,0,0,0,1.538-1.538V21.46a1.538,1.538,0,1,0-3.077,0v4.615A1.538,1.538,0,0,0,18.673,27.614Zm1.538-18.46a1.538,1.538,0,1,1-3.077,0V4.538a1.538,1.538,0,1,1,3.077,0Z" transform="translate(2.342 2.689)" fill="#fff" fill-rule="evenodd"/>
    </g>
</svg>
