<svg id="earth_2_line" xmlns="http://www.w3.org/2000/svg" width="52" height="52" viewBox="0 0 52 52">
    <path id="Path_19" data-name="Path 19" d="M52,0V52H0V0ZM27.287,50.392l-.026,0-.154.076-.043.009-.03-.009-.154-.078a.048.048,0,0,0-.052.013l-.009.022-.037.927.011.043.022.028.225.16.032.009.026-.009.225-.16.026-.035.009-.037-.037-.925a.047.047,0,0,0-.035-.039Zm.572-.245-.03,0-.4.2-.022.022L27.4,50.4l.039.932.011.026.017.017.436.2a.055.055,0,0,0,.063-.017l.009-.03L27.9,50.2a.058.058,0,0,0-.043-.048Zm-1.549,0a.05.05,0,0,0-.058.013l-.013.03-.074,1.33a.054.054,0,0,0,.037.052l.033,0,.435-.2.022-.017.007-.024.039-.932-.007-.026-.022-.022-.4-.2Z" fill="none" fill-rule="evenodd"/>
    <path id="Path_20" data-name="Path 20" d="M23.667,2A21.667,21.667,0,1,1,2,23.667,21.666,21.666,0,0,1,23.667,2Zm3.211,32.37a39.464,39.464,0,0,1-6.422,0q.3,1.29.672,2.388a11.862,11.862,0,0,0,1.712,3.514,2.581,2.581,0,0,0,.65.628l.111.061.065.017.069-.017.111-.058a2.622,2.622,0,0,0,.65-.628,11.907,11.907,0,0,0,1.712-3.516Q26.573,35.662,26.878,34.37Zm-18.8-3.109A17.39,17.39,0,0,0,17.7,39.949q-.383-.895-.689-1.82a34.272,34.272,0,0,1-1.127-4.4,38.719,38.719,0,0,1-7.806-2.463Zm31.172,0a38.7,38.7,0,0,1-7.811,2.463,33.866,33.866,0,0,1-1.127,4.407c-.208.628-.438,1.239-.689,1.816a17.392,17.392,0,0,0,9.627-8.688ZM27.948,21.22a32.758,32.758,0,0,1-8.563,0c-.035.8-.052,1.614-.052,2.446a54.224,54.224,0,0,0,.358,6.275,35.089,35.089,0,0,0,7.952,0A54.252,54.252,0,0,0,28,23.667c0-.832-.017-1.647-.052-2.448ZM7.564,17.236a17.286,17.286,0,0,0-1.127,8.355,34.435,34.435,0,0,0,8.812,3.547,60.425,60.425,0,0,1-.16-8.781,32.316,32.316,0,0,1-7.525-3.12Zm32.205,0a32.318,32.318,0,0,1-7.525,3.12,60.4,60.4,0,0,1-.16,8.782,34.433,34.433,0,0,0,8.81-3.547,17.286,17.286,0,0,0-1.127-8.353ZM23.7,6.359l-.024,0-.043.006-.082.032a2.671,2.671,0,0,0-.715.665,11.972,11.972,0,0,0-1.712,3.514A34.17,34.17,0,0,0,19.754,16.9a28.433,28.433,0,0,0,7.826,0,34.308,34.308,0,0,0-1.372-6.324A11.943,11.943,0,0,0,24.5,7.059a2.672,2.672,0,0,0-.65-.628L23.7,6.362Zm-6,1.027a17.381,17.381,0,0,0-8.038,6.06,28.008,28.008,0,0,0,5.839,2.52A37.991,37.991,0,0,1,17.015,9.2c.21-.63.44-1.239.689-1.816Zm11.925,0c.249.576.477,1.185.689,1.816a38.034,38.034,0,0,1,1.51,6.764,28.008,28.008,0,0,0,5.839-2.52,17.379,17.379,0,0,0-8.038-6.06Z" transform="translate(2.333 2.333)" fill="#e35ae8" fill-rule="evenodd"/>
</svg>
